# xmcd
#
# Track frame offsets:
# 150
# 13130
# 27745
# 41487
# 55797
# 70107
# 85067
# 98277
# 112812
# 126995
# 141160
# 155342
# 168062
# 181025
# 194077
# 207362
# 220707
# 232825
# 245907
# 259317
# 272800
#
# Disc length: 3797 seconds
#
# Revision: 0
# Processed by: cddbd v1.4PL0 Copyright (c) Steve Scherf et al.
# Submitted via: Audion 3.0.2 (http://www.panic.com/audion/)
#
DISCID=230ed315
DTITLE=Charley Patton - Charley Patton-Volume 3 (1929-34)
DYEAR=1900
DGENRE=
TTITLE0=Running Wild Blues
TTITLE1=Tell Me Man Blues
TTITLE2=Be True Be True Blues
TTITLE3=Joe Kirby
TTITLE4=Mean Black Blues
TTITLE5=Dry Well Blues
TTITLE6=Some Summer Day (part 1)
TTITLE7=Moon Going Down
TTITLE8=Bird Nest Bound
TTITLE9=Jersey Bull Blues
TTITLE10=High Sheriff Blues
TTITLE11=Stone Pony Blues
TTITLE12=Yellow Bee
TTITLE13=Mind Reader Blues
TTITLE14=34 Blues
TTITLE15=Love My Stuff
TTITLE16=Revenue Man Blues
TTITLE17=Oh Death
TTITLE18=Troubled 'Bout My Mother
TTITLE19=Poor Me
TTITLE20=Hang it on the Wall
EXTD=
EXTT0=
EXTT1=
EXTT2=
EXTT3=
EXTT4=
EXTT5=
EXTT6=
EXTT7=
EXTT8=
EXTT9=
EXTT10=
EXTT11=
EXTT12=
EXTT13=
EXTT14=
EXTT15=
EXTT16=
EXTT17=
EXTT18=
EXTT19=
EXTT20=
PLAYORDER=
